<svg width="383" height="29" viewBox="0 0 383 29" fill="none" xmlns="http://www.w3.org/2000/svg">
<path d="M166.096 26.2714C181.552 24.9731 197.011 23.9725 212.506 23.4035C221.201 23.0846 229.895 22.9021 238.595 22.7426C250.352 22.527 262.739 22.6437 274.238 19.7296C274.845 19.576 273.004 19.5214 272.385 19.4294C271.093 19.2369 269.784 19.1434 268.488 18.982C265.262 18.5799 262.053 18.2979 258.816 18.0242C247.691 17.0832 236.532 16.4601 225.369 16.3612C192.785 16.0718 160.864 16.1216 128.372 19.203C117.944 20.1922 107.551 21.367 97.1377 22.5191C94.7443 22.7839 87.5111 22.6136 85.8456 24.9101C85.192 25.8112 88.0721 24.9022 89.1849 24.8692C91.1338 24.8116 93.0656 24.8378 95.0135 24.9086C101.218 25.134 107.43 25.0154 113.632 24.6591C131.904 23.6093 150.249 23.1039 168.546 22.4252C204.089 21.1072 239.579 17.9455 275.081 15.9463C285.708 15.3483 296.3 14.1922 306.927 13.6597C312.889 13.361 321.039 14.0466 326.484 11.0961C327.61 10.4863 323.945 10.7668 322.676 10.597C320.424 10.2958 318.211 10.0217 315.943 9.84157C308.419 9.24458 300.797 9.43109 293.252 9.03243C271.424 7.87881 249.56 7.39501 227.692 7.38172C182.102 7.35515 135.77 7.65388 90.3355 11.6143C72.4941 13.1695 51.4779 12.3038 34.391 18.3756C33.0853 18.8397 37.1643 18.4258 38.5448 18.5425C41.2148 18.7684 43.9286 18.576 46.6075 18.7522C54.955 19.3019 63.2853 18.701 71.6363 18.481C96.552 17.8229 121.518 17.7265 146.468 17.194C174.002 16.6058 201.413 13.7385 228.907 12.3644C260.248 10.7978 291.58 9.876 322.908 8.11209C337.659 7.28133 352.411 7.03427 367.179 7.06823C369.28 7.07315 379.188 8.29222 380.617 6.63315C381.585 5.51102 377.696 6.1385 376.233 5.91112C372.924 5.39731 369.606 5.12175 366.277 4.78363C357.338 3.87707 348.328 3.20079 339.342 3.07873C311.979 2.70764 284.588 3.79828 257.23 3.26822C227.014 2.68304 196.528 4.40019 166.301 5.13449C139.102 5.79546 111.783 4.33719 84.5629 4.53209C57.5324 4.726 30.0153 9.22307 3 7.21062" stroke="#E9FB18" stroke-width="4.05049" stroke-miterlimit="1.5" stroke-linecap="round" stroke-linejoin="round"/>
</svg>
